<mxfile host="app.diagrams.net" modified="2024-01-27T17:28:46.673Z" agent="Mozilla/5.0 (Windows NT 10.0; Win64; x64) AppleWebKit/537.36 (KHTML, like Gecko) Chrome/120.0.0.0 Safari/537.36" etag="yHa2GTh0Zf86RJBhSvCx" version="23.0.2" type="device">
  <diagram id="C5RBs43oDa-KdzZeNtuy" name="Page-1">
    <mxGraphModel dx="2940" dy="1084" grid="1" gridSize="10" guides="1" tooltips="1" connect="1" arrows="1" fold="1" page="1" pageScale="1" pageWidth="827" pageHeight="1169" math="0" shadow="0">
      <root>
        <mxCell id="WIyWlLk6GJQsqaUBKTNV-0" />
        <mxCell id="WIyWlLk6GJQsqaUBKTNV-1" parent="WIyWlLk6GJQsqaUBKTNV-0" />
        <mxCell id="Ku1soB3VHKQDk2RZOCrD-0" value="class Produs (abstract)" style="swimlane;fontStyle=1;align=center;verticalAlign=top;childLayout=stackLayout;horizontal=1;startSize=26;horizontalStack=0;resizeParent=1;resizeParentMax=0;resizeLast=0;collapsible=1;marginBottom=0;whiteSpace=wrap;html=1;fontSize=16;" parent="WIyWlLk6GJQsqaUBKTNV-1" vertex="1">
          <mxGeometry x="270" y="38" width="290" height="500" as="geometry">
            <mxRectangle x="334" y="30" width="100" height="30" as="alternateBounds" />
          </mxGeometry>
        </mxCell>
        <mxCell id="Ku1soB3VHKQDk2RZOCrD-1" value="+&amp;nbsp;pret: float&lt;br&gt;+ model: string&lt;br&gt;+&amp;nbsp;an_fabricaite: int&lt;br&gt;+ garantie: int, (luni)&lt;br&gt;+ producator: string&lt;br&gt;+ tara_provenienta: string&lt;br&gt;+ stoc: int, default = 0" style="text;strokeColor=none;fillColor=none;align=left;verticalAlign=top;spacingLeft=4;spacingRight=4;overflow=hidden;rotatable=0;points=[[0,0.5],[1,0.5]];portConstraint=eastwest;whiteSpace=wrap;html=1;fontSize=16;" parent="Ku1soB3VHKQDk2RZOCrD-0" vertex="1">
          <mxGeometry y="26" width="290" height="146" as="geometry" />
        </mxCell>
        <mxCell id="Ku1soB3VHKQDk2RZOCrD-2" value="" style="line;strokeWidth=1;fillColor=none;align=left;verticalAlign=middle;spacingTop=-1;spacingLeft=3;spacingRight=3;rotatable=0;labelPosition=right;points=[];portConstraint=eastwest;strokeColor=inherit;fontSize=16;" parent="Ku1soB3VHKQDk2RZOCrD-0" vertex="1">
          <mxGeometry y="172" width="290" height="9" as="geometry" />
        </mxCell>
        <mxCell id="Ku1soB3VHKQDk2RZOCrD-3" value="+ constructor()&lt;br&gt;+ constructor(toate argumentele)&lt;br&gt;+ virtual destructor()&lt;br&gt;+ afisare(): void&lt;br&gt;+ toate setter&lt;br&gt;+ toate getter&lt;br&gt;+&amp;nbsp;virtual afisare() const: void&amp;nbsp;&lt;br&gt;+&amp;nbsp;virtual outputFisier(ofstream &amp;amp;stream, char sep = &#39;,&#39;, bool useEndl = true) const: void&amp;nbsp;&lt;br&gt;+ bool vanzareProdus(int cantitate)&lt;br&gt;+ void incarcaStoc(int cantitate)&lt;br&gt;+ virtual void afisarePretDupaProducator(string&amp;amp; producatorCautat) const = 0&lt;br&gt;+&amp;nbsp;virtual calculPretRedus() = 0: float&amp;nbsp;" style="text;strokeColor=none;fillColor=none;align=left;verticalAlign=top;spacingLeft=4;spacingRight=4;overflow=hidden;rotatable=0;points=[[0,0.5],[1,0.5]];portConstraint=eastwest;whiteSpace=wrap;html=1;fontSize=16;" parent="Ku1soB3VHKQDk2RZOCrD-0" vertex="1">
          <mxGeometry y="181" width="290" height="319" as="geometry" />
        </mxCell>
        <mxCell id="Ku1soB3VHKQDk2RZOCrD-6" value="class Procesor" style="swimlane;fontStyle=1;align=center;verticalAlign=top;childLayout=stackLayout;horizontal=1;startSize=30;horizontalStack=0;resizeParent=1;resizeParentMax=0;resizeLast=0;collapsible=1;marginBottom=0;whiteSpace=wrap;html=1;fontSize=16;" parent="WIyWlLk6GJQsqaUBKTNV-1" vertex="1">
          <mxGeometry x="23" y="665" width="237" height="258" as="geometry" />
        </mxCell>
        <mxCell id="Ku1soB3VHKQDk2RZOCrD-7" value="+ cod_produs: string&lt;br&gt;+ soclu: string&lt;br&gt;+ frecventa: int (mhz)&lt;br&gt;+ numar_nuclee: int&lt;br&gt;+ memorie_cache: int&lt;br&gt;+ static: int nrProduseDistincte&lt;br style=&quot;border-color: var(--border-color);&quot;&gt;+&amp;nbsp;static: int index_cod" style="text;strokeColor=none;fillColor=none;align=left;verticalAlign=top;spacingLeft=4;spacingRight=4;overflow=hidden;rotatable=0;points=[[0,0.5],[1,0.5]];portConstraint=eastwest;whiteSpace=wrap;html=1;fontSize=16;" parent="Ku1soB3VHKQDk2RZOCrD-6" vertex="1">
          <mxGeometry y="30" width="237" height="140" as="geometry" />
        </mxCell>
        <mxCell id="Ku1soB3VHKQDk2RZOCrD-8" value="" style="line;strokeWidth=1;fillColor=none;align=left;verticalAlign=middle;spacingTop=-1;spacingLeft=3;spacingRight=3;rotatable=0;labelPosition=right;points=[];portConstraint=eastwest;strokeColor=inherit;fontSize=16;" parent="Ku1soB3VHKQDk2RZOCrD-6" vertex="1">
          <mxGeometry y="170" width="237" height="14" as="geometry" />
        </mxCell>
        <mxCell id="Ku1soB3VHKQDk2RZOCrD-9" value="+ constructor(toate argumentele)&lt;br style=&quot;border-color: var(--border-color);&quot;&gt;+ destructor()" style="text;strokeColor=none;fillColor=none;align=left;verticalAlign=top;spacingLeft=4;spacingRight=4;overflow=hidden;rotatable=0;points=[[0,0.5],[1,0.5]];portConstraint=eastwest;whiteSpace=wrap;html=1;fontSize=16;" parent="Ku1soB3VHKQDk2RZOCrD-6" vertex="1">
          <mxGeometry y="184" width="237" height="74" as="geometry" />
        </mxCell>
        <mxCell id="Ku1soB3VHKQDk2RZOCrD-10" value="class PlacaBaza" style="swimlane;fontStyle=1;align=center;verticalAlign=top;childLayout=stackLayout;horizontal=1;startSize=30;horizontalStack=0;resizeParent=1;resizeParentMax=0;resizeLast=0;collapsible=1;marginBottom=0;whiteSpace=wrap;html=1;fontSize=16;" parent="WIyWlLk6GJQsqaUBKTNV-1" vertex="1">
          <mxGeometry x="292" y="665" width="242" height="250" as="geometry" />
        </mxCell>
        <mxCell id="Ku1soB3VHKQDk2RZOCrD-11" value="+ cod_produs: string&lt;br&gt;+ soclu: string&lt;br&gt;+ chipset: string&lt;br&gt;+ format: string&lt;br&gt;+ tip_memorie: string&lt;br&gt;+ static: int nrProduseDistincte&lt;br style=&quot;border-color: var(--border-color);&quot;&gt;+&amp;nbsp;static: int index_cod" style="text;strokeColor=none;fillColor=none;align=left;verticalAlign=top;spacingLeft=4;spacingRight=4;overflow=hidden;rotatable=0;points=[[0,0.5],[1,0.5]];portConstraint=eastwest;whiteSpace=wrap;html=1;fontSize=16;" parent="Ku1soB3VHKQDk2RZOCrD-10" vertex="1">
          <mxGeometry y="30" width="242" height="140" as="geometry" />
        </mxCell>
        <mxCell id="Ku1soB3VHKQDk2RZOCrD-12" value="" style="line;strokeWidth=1;fillColor=none;align=left;verticalAlign=middle;spacingTop=-1;spacingLeft=3;spacingRight=3;rotatable=0;labelPosition=right;points=[];portConstraint=eastwest;strokeColor=inherit;fontSize=16;" parent="Ku1soB3VHKQDk2RZOCrD-10" vertex="1">
          <mxGeometry y="170" width="242" height="12" as="geometry" />
        </mxCell>
        <mxCell id="Ku1soB3VHKQDk2RZOCrD-13" value="+ constructor(toate argumentele)&lt;br style=&quot;border-color: var(--border-color);&quot;&gt;+ destructor()" style="text;strokeColor=none;fillColor=none;align=left;verticalAlign=top;spacingLeft=4;spacingRight=4;overflow=hidden;rotatable=0;points=[[0,0.5],[1,0.5]];portConstraint=eastwest;whiteSpace=wrap;html=1;fontSize=16;" parent="Ku1soB3VHKQDk2RZOCrD-10" vertex="1">
          <mxGeometry y="182" width="242" height="68" as="geometry" />
        </mxCell>
        <mxCell id="Ku1soB3VHKQDk2RZOCrD-14" value="class Memorie" style="swimlane;fontStyle=1;align=center;verticalAlign=top;childLayout=stackLayout;horizontal=1;startSize=30;horizontalStack=0;resizeParent=1;resizeParentMax=0;resizeLast=0;collapsible=1;marginBottom=0;whiteSpace=wrap;html=1;fontSize=16;" parent="WIyWlLk6GJQsqaUBKTNV-1" vertex="1">
          <mxGeometry x="575" y="665" width="239" height="230" as="geometry" />
        </mxCell>
        <mxCell id="Ku1soB3VHKQDk2RZOCrD-15" value="+ cod_produs: string&lt;br&gt;+ tip_memorie: string&lt;br&gt;+ capacitate: int (GB)&lt;br&gt;+ frecventa: int (mhz)&lt;br&gt;+ static: int nrProduseDistincte&lt;br style=&quot;border-color: var(--border-color);&quot;&gt;+&amp;nbsp;static: int index_cod" style="text;strokeColor=none;fillColor=none;align=left;verticalAlign=top;spacingLeft=4;spacingRight=4;overflow=hidden;rotatable=0;points=[[0,0.5],[1,0.5]];portConstraint=eastwest;whiteSpace=wrap;html=1;fontSize=16;" parent="Ku1soB3VHKQDk2RZOCrD-14" vertex="1">
          <mxGeometry y="30" width="239" height="120" as="geometry" />
        </mxCell>
        <mxCell id="Ku1soB3VHKQDk2RZOCrD-16" value="" style="line;strokeWidth=1;fillColor=none;align=left;verticalAlign=middle;spacingTop=-1;spacingLeft=3;spacingRight=3;rotatable=0;labelPosition=right;points=[];portConstraint=eastwest;strokeColor=inherit;fontSize=16;" parent="Ku1soB3VHKQDk2RZOCrD-14" vertex="1">
          <mxGeometry y="150" width="239" height="8" as="geometry" />
        </mxCell>
        <mxCell id="Ku1soB3VHKQDk2RZOCrD-17" value="+ constructor(toate argumentele)&lt;br style=&quot;border-color: var(--border-color);&quot;&gt;+ destructor()" style="text;strokeColor=none;fillColor=none;align=left;verticalAlign=top;spacingLeft=4;spacingRight=4;overflow=hidden;rotatable=0;points=[[0,0.5],[1,0.5]];portConstraint=eastwest;whiteSpace=wrap;html=1;fontSize=16;" parent="Ku1soB3VHKQDk2RZOCrD-14" vertex="1">
          <mxGeometry y="158" width="239" height="72" as="geometry" />
        </mxCell>
        <mxCell id="Ku1soB3VHKQDk2RZOCrD-22" value="class Stocare" style="swimlane;fontStyle=1;align=center;verticalAlign=top;childLayout=stackLayout;horizontal=1;startSize=30;horizontalStack=0;resizeParent=1;resizeParentMax=0;resizeLast=0;collapsible=1;marginBottom=0;whiteSpace=wrap;html=1;fontSize=16;" parent="WIyWlLk6GJQsqaUBKTNV-1" vertex="1">
          <mxGeometry x="589" y="81" width="230" height="250" as="geometry" />
        </mxCell>
        <mxCell id="Ku1soB3VHKQDk2RZOCrD-23" value="+ cod_produs: string&lt;br&gt;+ tip: string&lt;br&gt;+ format: string&lt;br&gt;+ capacitate: int (GB)&lt;br&gt;+ viteza: int (mb/s)&lt;br&gt;+ static: int nrProduseDistincte&lt;br style=&quot;border-color: var(--border-color);&quot;&gt;+&amp;nbsp;static: int index_cod" style="text;strokeColor=none;fillColor=none;align=left;verticalAlign=top;spacingLeft=4;spacingRight=4;overflow=hidden;rotatable=0;points=[[0,0.5],[1,0.5]];portConstraint=eastwest;whiteSpace=wrap;html=1;fontSize=16;" parent="Ku1soB3VHKQDk2RZOCrD-22" vertex="1">
          <mxGeometry y="30" width="230" height="140" as="geometry" />
        </mxCell>
        <mxCell id="Ku1soB3VHKQDk2RZOCrD-24" value="" style="line;strokeWidth=1;fillColor=none;align=left;verticalAlign=middle;spacingTop=-1;spacingLeft=3;spacingRight=3;rotatable=0;labelPosition=right;points=[];portConstraint=eastwest;strokeColor=inherit;fontSize=16;" parent="Ku1soB3VHKQDk2RZOCrD-22" vertex="1">
          <mxGeometry y="170" width="230" height="12" as="geometry" />
        </mxCell>
        <mxCell id="Ku1soB3VHKQDk2RZOCrD-25" value="+ constructor(toate argumentele)&lt;br style=&quot;border-color: var(--border-color);&quot;&gt;+ destructor()" style="text;strokeColor=none;fillColor=none;align=left;verticalAlign=top;spacingLeft=4;spacingRight=4;overflow=hidden;rotatable=0;points=[[0,0.5],[1,0.5]];portConstraint=eastwest;whiteSpace=wrap;html=1;fontSize=16;" parent="Ku1soB3VHKQDk2RZOCrD-22" vertex="1">
          <mxGeometry y="182" width="230" height="68" as="geometry" />
        </mxCell>
        <mxCell id="Ku1soB3VHKQDk2RZOCrD-26" value="class PlacaVideo" style="swimlane;fontStyle=1;align=center;verticalAlign=top;childLayout=stackLayout;horizontal=1;startSize=30;horizontalStack=0;resizeParent=1;resizeParentMax=0;resizeLast=0;collapsible=1;marginBottom=0;whiteSpace=wrap;html=1;fontSize=16;" parent="WIyWlLk6GJQsqaUBKTNV-1" vertex="1">
          <mxGeometry x="9" y="81" width="230" height="250" as="geometry" />
        </mxCell>
        <mxCell id="Ku1soB3VHKQDk2RZOCrD-27" value="+ cod_produs: string&amp;nbsp;&lt;br&gt;+ chipset: string&lt;br&gt;+ capacitate_memorie: int&lt;br&gt;+ tip_memorie: string&lt;br&gt;+ frecventa: int&lt;br&gt;+ static: int nrProduseDistincte&lt;br&gt;+&amp;nbsp;static: int index_cod" style="text;strokeColor=none;fillColor=none;align=left;verticalAlign=top;spacingLeft=4;spacingRight=4;overflow=hidden;rotatable=0;points=[[0,0.5],[1,0.5]];portConstraint=eastwest;whiteSpace=wrap;html=1;fontSize=16;" parent="Ku1soB3VHKQDk2RZOCrD-26" vertex="1">
          <mxGeometry y="30" width="230" height="140" as="geometry" />
        </mxCell>
        <mxCell id="Ku1soB3VHKQDk2RZOCrD-28" value="" style="line;strokeWidth=1;fillColor=none;align=left;verticalAlign=middle;spacingTop=-1;spacingLeft=3;spacingRight=3;rotatable=0;labelPosition=right;points=[];portConstraint=eastwest;strokeColor=inherit;fontSize=16;" parent="Ku1soB3VHKQDk2RZOCrD-26" vertex="1">
          <mxGeometry y="170" width="230" height="8" as="geometry" />
        </mxCell>
        <mxCell id="Ku1soB3VHKQDk2RZOCrD-29" value="+ constructor(toate argumentele)&lt;br style=&quot;border-color: var(--border-color);&quot;&gt;+ destructor()" style="text;strokeColor=none;fillColor=none;align=left;verticalAlign=top;spacingLeft=4;spacingRight=4;overflow=hidden;rotatable=0;points=[[0,0.5],[1,0.5]];portConstraint=eastwest;whiteSpace=wrap;html=1;fontSize=16;" parent="Ku1soB3VHKQDk2RZOCrD-26" vertex="1">
          <mxGeometry y="178" width="230" height="72" as="geometry" />
        </mxCell>
        <mxCell id="Ku1soB3VHKQDk2RZOCrD-30" style="edgeStyle=none;curved=1;rounded=0;orthogonalLoop=1;jettySize=auto;html=1;entryX=0.5;entryY=0;entryDx=0;entryDy=0;fontSize=12;startSize=8;endSize=8;" parent="WIyWlLk6GJQsqaUBKTNV-1" source="Ku1soB3VHKQDk2RZOCrD-3" target="Ku1soB3VHKQDk2RZOCrD-6" edge="1">
          <mxGeometry relative="1" as="geometry" />
        </mxCell>
        <mxCell id="Ku1soB3VHKQDk2RZOCrD-31" style="edgeStyle=none;curved=1;rounded=0;orthogonalLoop=1;jettySize=auto;html=1;entryX=0.5;entryY=0;entryDx=0;entryDy=0;fontSize=12;startSize=8;endSize=8;" parent="WIyWlLk6GJQsqaUBKTNV-1" source="Ku1soB3VHKQDk2RZOCrD-3" target="Ku1soB3VHKQDk2RZOCrD-10" edge="1">
          <mxGeometry relative="1" as="geometry" />
        </mxCell>
        <mxCell id="Ku1soB3VHKQDk2RZOCrD-32" style="edgeStyle=none;curved=1;rounded=0;orthogonalLoop=1;jettySize=auto;html=1;fontSize=12;startSize=8;endSize=8;entryX=0.5;entryY=0;entryDx=0;entryDy=0;" parent="WIyWlLk6GJQsqaUBKTNV-1" source="Ku1soB3VHKQDk2RZOCrD-3" target="Ku1soB3VHKQDk2RZOCrD-14" edge="1">
          <mxGeometry relative="1" as="geometry" />
        </mxCell>
        <mxCell id="Ku1soB3VHKQDk2RZOCrD-33" style="edgeStyle=none;curved=1;rounded=0;orthogonalLoop=1;jettySize=auto;html=1;fontSize=12;startSize=8;endSize=8;entryX=0;entryY=0.5;entryDx=0;entryDy=0;" parent="WIyWlLk6GJQsqaUBKTNV-1" source="Ku1soB3VHKQDk2RZOCrD-1" target="Ku1soB3VHKQDk2RZOCrD-23" edge="1">
          <mxGeometry relative="1" as="geometry" />
        </mxCell>
        <mxCell id="Ku1soB3VHKQDk2RZOCrD-34" style="edgeStyle=none;curved=1;rounded=0;orthogonalLoop=1;jettySize=auto;html=1;entryX=1;entryY=0.5;entryDx=0;entryDy=0;fontSize=12;startSize=8;endSize=8;" parent="WIyWlLk6GJQsqaUBKTNV-1" source="Ku1soB3VHKQDk2RZOCrD-1" target="Ku1soB3VHKQDk2RZOCrD-27" edge="1">
          <mxGeometry relative="1" as="geometry" />
        </mxCell>
      </root>
    </mxGraphModel>
  </diagram>
</mxfile>
